<svg xmlns="http://www.w3.org/2000/svg" xmlns:xlink="http://www.w3.org/1999/xlink" width="1920" zoomAndPan="magnify" viewBox="0 0 1440 809.999993" height="1080" preserveAspectRatio="xMidYMid meet" version="1.0"><defs><clipPath id="c639fda476"><path d="M 81 27.550781 L 1386 27.550781 L 1386 781 L 81 781 Z M 81 27.550781 " clip-rule="nonzero"/></clipPath></defs><g clip-path="url(#c639fda476)"><path fill="#000000" d="M 1351.570312 780.945312 L 116.179688 780.945312 C 115.058594 780.945312 113.9375 780.890625 112.816406 780.78125 C 111.699219 780.671875 110.589844 780.503906 109.484375 780.285156 C 108.382812 780.066406 107.296875 779.792969 106.21875 779.46875 C 105.144531 779.140625 104.085938 778.761719 103.046875 778.332031 C 102.011719 777.902344 100.996094 777.421875 100.003906 776.890625 C 99.011719 776.363281 98.050781 775.785156 97.117188 775.160156 C 96.179688 774.535156 95.28125 773.867188 94.410156 773.152344 C 93.542969 772.441406 92.710938 771.6875 91.914062 770.890625 C 91.121094 770.097656 90.367188 769.265625 89.652344 768.394531 C 88.941406 767.527344 88.273438 766.625 87.648438 765.6875 C 87.023438 764.753906 86.445312 763.789062 85.917969 762.800781 C 85.386719 761.808594 84.90625 760.792969 84.476562 759.753906 C 84.046875 758.714844 83.667969 757.65625 83.34375 756.582031 C 83.015625 755.503906 82.742188 754.417969 82.523438 753.3125 C 82.304688 752.210938 82.140625 751.101562 82.03125 749.980469 C 81.917969 748.863281 81.863281 747.742188 81.863281 746.617188 C 81.863281 745.492188 81.917969 744.371094 82.03125 743.25 C 82.140625 742.132812 82.304688 741.023438 82.523438 739.917969 C 82.742188 738.816406 83.015625 737.726562 83.34375 736.652344 C 83.667969 735.574219 84.046875 734.519531 84.476562 733.480469 C 84.90625 732.441406 85.386719 731.425781 85.917969 730.433594 C 86.445312 729.441406 87.023438 728.480469 87.648438 727.542969 C 88.273438 726.609375 88.941406 725.707031 89.652344 724.835938 C 90.367188 723.96875 91.121094 723.136719 91.914062 722.339844 C 92.710938 721.546875 93.542969 720.792969 94.410156 720.078125 C 95.28125 719.367188 96.179688 718.695312 97.117188 718.070312 C 98.050781 717.449219 99.011719 716.871094 100.003906 716.339844 C 100.996094 715.808594 102.011719 715.332031 103.046875 714.898438 C 104.085938 714.46875 105.144531 714.089844 106.21875 713.765625 C 107.296875 713.4375 108.382812 713.164062 109.484375 712.945312 C 110.589844 712.726562 111.699219 712.5625 112.816406 712.453125 C 113.9375 712.34375 115.058594 712.285156 116.179688 712.285156 L 1351.570312 712.285156 C 1352.691406 712.285156 1353.8125 712.34375 1354.933594 712.453125 C 1356.050781 712.5625 1357.160156 712.726562 1358.265625 712.945312 C 1359.367188 713.164062 1360.453125 713.4375 1361.53125 713.765625 C 1362.605469 714.089844 1363.664062 714.46875 1364.699219 714.898438 C 1365.738281 715.332031 1366.753906 715.808594 1367.746094 716.339844 C 1368.738281 716.871094 1369.699219 717.449219 1370.632812 718.070312 C 1371.570312 718.695312 1372.46875 719.367188 1373.339844 720.078125 C 1374.207031 720.792969 1375.039062 721.546875 1375.835938 722.339844 C 1376.628906 723.136719 1377.382812 723.96875 1378.097656 724.835938 C 1378.808594 725.707031 1379.476562 726.609375 1380.101562 727.542969 C 1380.726562 728.480469 1381.304688 729.441406 1381.832031 730.433594 C 1382.363281 731.425781 1382.84375 732.441406 1383.273438 733.480469 C 1383.703125 734.519531 1384.082031 735.574219 1384.40625 736.652344 C 1384.734375 737.726562 1385.007812 738.816406 1385.226562 739.917969 C 1385.445312 741.023438 1385.609375 742.132812 1385.71875 743.25 C 1385.832031 744.371094 1385.886719 745.492188 1385.886719 746.617188 C 1385.886719 747.742188 1385.832031 748.863281 1385.71875 749.980469 C 1385.609375 751.101562 1385.445312 752.210938 1385.226562 753.3125 C 1385.007812 754.417969 1384.734375 755.503906 1384.40625 756.582031 C 1384.082031 757.65625 1383.703125 758.714844 1383.273438 759.753906 C 1382.84375 760.792969 1382.363281 761.808594 1381.832031 762.800781 C 1381.304688 763.789062 1380.726562 764.753906 1380.101562 765.6875 C 1379.476562 766.625 1378.808594 767.527344 1378.097656 768.394531 C 1377.382812 769.265625 1376.628906 770.097656 1375.835938 770.890625 C 1375.039062 771.6875 1374.207031 772.441406 1373.339844 773.152344 C 1372.46875 773.867188 1371.570312 774.535156 1370.632812 775.160156 C 1369.699219 775.785156 1368.738281 776.363281 1367.746094 776.890625 C 1366.753906 777.421875 1365.738281 777.902344 1364.699219 778.332031 C 1363.664062 778.761719 1362.605469 779.140625 1361.53125 779.46875 C 1360.453125 779.792969 1359.367188 780.066406 1358.265625 780.285156 C 1357.160156 780.503906 1356.050781 780.671875 1354.933594 780.78125 C 1353.8125 780.890625 1352.691406 780.945312 1351.570312 780.945312 Z M 1351.570312 438.542969 L 116.179688 438.542969 C 115.058594 438.542969 113.9375 438.488281 112.816406 438.378906 C 111.699219 438.265625 110.589844 438.101562 109.484375 437.882812 C 108.382812 437.664062 107.296875 437.390625 106.21875 437.066406 C 105.144531 436.738281 104.085938 436.359375 103.046875 435.929688 C 102.011719 435.5 100.996094 435.019531 100.003906 434.488281 C 99.011719 433.960938 98.050781 433.382812 97.117188 432.757812 C 96.179688 432.132812 95.28125 431.464844 94.410156 430.75 C 93.542969 430.039062 92.710938 429.28125 91.914062 428.488281 C 91.121094 427.691406 90.367188 426.859375 89.652344 425.992188 C 88.941406 425.121094 88.273438 424.222656 87.648438 423.285156 C 87.023438 422.351562 86.445312 421.386719 85.917969 420.394531 C 85.386719 419.40625 84.90625 418.390625 84.476562 417.351562 C 84.046875 416.3125 83.667969 415.253906 83.34375 414.179688 C 83.015625 413.101562 82.742188 412.011719 82.523438 410.910156 C 82.304688 409.808594 82.140625 408.699219 82.03125 407.578125 C 81.917969 406.460938 81.863281 405.335938 81.863281 404.214844 C 81.863281 403.089844 81.917969 401.96875 82.03125 400.847656 C 82.140625 399.730469 82.304688 398.617188 82.523438 397.515625 C 82.742188 396.414062 83.015625 395.324219 83.34375 394.25 C 83.667969 393.171875 84.046875 392.113281 84.476562 391.074219 C 84.90625 390.039062 85.386719 389.023438 85.917969 388.03125 C 86.445312 387.039062 87.023438 386.074219 87.648438 385.140625 C 88.273438 384.207031 88.941406 383.304688 89.652344 382.433594 C 90.367188 381.566406 91.121094 380.734375 91.914062 379.9375 C 92.710938 379.144531 93.542969 378.390625 94.410156 377.675781 C 95.28125 376.964844 96.179688 376.292969 97.117188 375.667969 C 98.050781 375.042969 99.011719 374.46875 100.003906 373.9375 C 100.996094 373.40625 102.011719 372.925781 103.046875 372.496094 C 104.085938 372.066406 105.144531 371.6875 106.21875 371.363281 C 107.296875 371.035156 108.382812 370.761719 109.484375 370.542969 C 110.589844 370.324219 111.699219 370.160156 112.816406 370.050781 C 113.9375 369.9375 115.058594 369.882812 116.179688 369.882812 L 1351.570312 369.882812 C 1352.691406 369.882812 1353.8125 369.9375 1354.933594 370.050781 C 1356.050781 370.160156 1357.160156 370.324219 1358.265625 370.542969 C 1359.367188 370.761719 1360.453125 371.035156 1361.53125 371.363281 C 1362.605469 371.6875 1363.664062 372.066406 1364.699219 372.496094 C 1365.738281 372.925781 1366.753906 373.40625 1367.746094 373.9375 C 1368.738281 374.46875 1369.699219 375.042969 1370.632812 375.667969 C 1371.570312 376.292969 1372.46875 376.964844 1373.339844 377.675781 C 1374.207031 378.390625 1375.039062 379.144531 1375.835938 379.9375 C 1376.628906 380.734375 1377.382812 381.566406 1378.097656 382.433594 C 1378.808594 383.304688 1379.476562 384.207031 1380.101562 385.140625 C 1380.726562 386.074219 1381.304688 387.039062 1381.832031 388.03125 C 1382.363281 389.023438 1382.84375 390.039062 1383.273438 391.074219 C 1383.703125 392.113281 1384.082031 393.171875 1384.40625 394.25 C 1384.734375 395.324219 1385.007812 396.414062 1385.226562 397.515625 C 1385.445312 398.617188 1385.609375 399.730469 1385.71875 400.847656 C 1385.832031 401.96875 1385.886719 403.089844 1385.886719 404.214844 C 1385.886719 405.335938 1385.832031 406.460938 1385.71875 407.578125 C 1385.609375 408.699219 1385.445312 409.808594 1385.226562 410.910156 C 1385.007812 412.011719 1384.734375 413.101562 1384.40625 414.179688 C 1384.082031 415.253906 1383.703125 416.3125 1383.273438 417.351562 C 1382.84375 418.390625 1382.363281 419.40625 1381.832031 420.394531 C 1381.304688 421.386719 1380.726562 422.351562 1380.101562 423.285156 C 1379.476562 424.222656 1378.808594 425.121094 1378.097656 425.992188 C 1377.382812 426.859375 1376.628906 427.691406 1375.835938 428.488281 C 1375.039062 429.28125 1374.207031 430.039062 1373.339844 430.75 C 1372.46875 431.464844 1371.570312 432.132812 1370.632812 432.757812 C 1369.699219 433.382812 1368.738281 433.960938 1367.746094 434.488281 C 1366.753906 435.019531 1365.738281 435.5 1364.699219 435.929688 C 1363.664062 436.359375 1362.605469 436.738281 1361.53125 437.066406 C 1360.453125 437.390625 1359.367188 437.664062 1358.265625 437.882812 C 1357.160156 438.101562 1356.050781 438.265625 1354.933594 438.378906 C 1353.8125 438.488281 1352.691406 438.542969 1351.570312 438.542969 Z M 1351.570312 96.207031 L 116.179688 96.207031 C 115.058594 96.207031 113.9375 96.152344 112.816406 96.042969 C 111.699219 95.933594 110.589844 95.769531 109.484375 95.550781 C 108.382812 95.328125 107.296875 95.058594 106.21875 94.730469 C 105.144531 94.402344 104.085938 94.027344 103.046875 93.59375 C 102.011719 93.164062 100.996094 92.683594 100.003906 92.15625 C 99.011719 91.625 98.050781 91.046875 97.117188 90.421875 C 96.179688 89.796875 95.28125 89.128906 94.410156 88.417969 C 93.542969 87.703125 92.710938 86.949219 91.914062 86.152344 C 91.121094 85.359375 90.367188 84.527344 89.652344 83.65625 C 88.941406 82.789062 88.273438 81.886719 87.648438 80.953125 C 87.023438 80.015625 86.445312 79.054688 85.917969 78.0625 C 85.386719 77.070312 84.90625 76.054688 84.476562 75.015625 C 84.046875 73.976562 83.667969 72.921875 83.34375 71.84375 C 83.015625 70.769531 82.742188 69.679688 82.523438 68.578125 C 82.304688 67.472656 82.140625 66.363281 82.03125 65.246094 C 81.917969 64.125 81.863281 63.003906 81.863281 61.878906 C 81.863281 60.753906 81.917969 59.632812 82.03125 58.515625 C 82.140625 57.394531 82.304688 56.285156 82.523438 55.183594 C 82.742188 54.078125 83.015625 52.988281 83.34375 51.914062 C 83.667969 50.839844 84.046875 49.78125 84.476562 48.742188 C 84.90625 47.703125 85.386719 46.6875 85.917969 45.695312 C 86.445312 44.703125 87.023438 43.742188 87.648438 42.808594 C 88.273438 41.871094 88.941406 40.96875 89.652344 40.101562 C 90.367188 39.230469 91.121094 38.398438 91.914062 37.605469 C 92.710938 36.808594 93.542969 36.054688 94.410156 35.34375 C 95.28125 34.628906 96.179688 33.960938 97.117188 33.335938 C 98.050781 32.710938 99.011719 32.132812 100.003906 31.601562 C 100.996094 31.074219 102.011719 30.59375 103.046875 30.164062 C 104.085938 29.734375 105.144531 29.355469 106.21875 29.027344 C 107.296875 28.703125 108.382812 28.429688 109.484375 28.210938 C 110.589844 27.988281 111.699219 27.824219 112.816406 27.714844 C 113.9375 27.605469 115.058594 27.550781 116.179688 27.550781 L 1351.570312 27.550781 C 1352.691406 27.550781 1353.8125 27.605469 1354.933594 27.714844 C 1356.050781 27.824219 1357.160156 27.988281 1358.265625 28.210938 C 1359.367188 28.429688 1360.453125 28.703125 1361.53125 29.027344 C 1362.605469 29.355469 1363.664062 29.734375 1364.699219 30.164062 C 1365.738281 30.59375 1366.753906 31.074219 1367.746094 31.601562 C 1368.738281 32.132812 1369.699219 32.710938 1370.632812 33.335938 C 1371.570312 33.960938 1372.46875 34.628906 1373.339844 35.34375 C 1374.207031 36.054688 1375.039062 36.808594 1375.835938 37.605469 C 1376.628906 38.398438 1377.382812 39.230469 1378.097656 40.101562 C 1378.808594 40.96875 1379.476562 41.871094 1380.101562 42.808594 C 1380.726562 43.742188 1381.304688 44.703125 1381.832031 45.695312 C 1382.363281 46.6875 1382.84375 47.703125 1383.273438 48.742188 C 1383.703125 49.78125 1384.082031 50.839844 1384.40625 51.914062 C 1384.734375 52.988281 1385.007812 54.078125 1385.226562 55.183594 C 1385.445312 56.285156 1385.609375 57.394531 1385.71875 58.515625 C 1385.832031 59.632812 1385.886719 60.753906 1385.886719 61.878906 C 1385.886719 63.003906 1385.832031 64.125 1385.71875 65.246094 C 1385.609375 66.363281 1385.445312 67.472656 1385.226562 68.578125 C 1385.007812 69.679688 1384.734375 70.769531 1384.40625 71.84375 C 1384.082031 72.921875 1383.703125 73.976562 1383.273438 75.015625 C 1382.84375 76.054688 1382.363281 77.070312 1381.832031 78.0625 C 1381.304688 79.054688 1380.726562 80.015625 1380.101562 80.953125 C 1379.476562 81.886719 1378.808594 82.789062 1378.097656 83.65625 C 1377.382812 84.527344 1376.628906 85.359375 1375.835938 86.152344 C 1375.039062 86.949219 1374.207031 87.703125 1373.339844 88.417969 C 1372.46875 89.128906 1371.570312 89.796875 1370.632812 90.421875 C 1369.699219 91.046875 1368.738281 91.625 1367.746094 92.15625 C 1366.753906 92.683594 1365.738281 93.164062 1364.699219 93.59375 C 1363.664062 94.027344 1362.605469 94.402344 1361.53125 94.730469 C 1360.453125 95.058594 1359.367188 95.328125 1358.265625 95.550781 C 1357.160156 95.769531 1356.050781 95.933594 1354.933594 96.042969 C 1353.8125 96.152344 1352.691406 96.207031 1351.570312 96.207031 Z M 1351.570312 96.207031 " fill-opacity="1" fill-rule="nonzero"/></g></svg>