<svg xmlns="http://www.w3.org/2000/svg" xmlns:xlink="http://www.w3.org/1999/xlink" width="500" zoomAndPan="magnify" viewBox="0 0 375 374.999991" height="500" preserveAspectRatio="xMidYMid meet" version="1.0"><defs><clipPath id="4f18065cb8"><path d="M 28.402344 28.402344 L 346.402344 28.402344 L 346.402344 346.402344 L 28.402344 346.402344 Z M 28.402344 28.402344 " clip-rule="nonzero"/></clipPath></defs><g clip-path="url(#4f18065cb8)"><path fill="#272727" d="M 187.550781 28.402344 C 231.503906 28.402344 271.269531 46.21875 300.078125 75.023438 C 328.882812 103.804688 346.699219 143.597656 346.699219 187.550781 C 346.699219 231.476562 328.882812 271.269531 300.078125 300.078125 C 271.269531 328.882812 231.503906 346.699219 187.550781 346.699219 C 143.597656 346.699219 103.804688 328.882812 75.023438 300.078125 C 46.21875 271.269531 28.402344 231.476562 28.402344 187.550781 C 28.402344 143.597656 46.21875 103.804688 75.023438 75.023438 C 103.804688 46.21875 143.597656 28.402344 187.550781 28.402344 Z M 293.59375 81.480469 C 266.46875 54.355469 228.972656 37.550781 187.550781 37.550781 C 146.128906 37.550781 108.628906 54.355469 81.480469 81.480469 C 54.355469 108.628906 37.550781 146.128906 37.550781 187.550781 C 37.550781 228.972656 54.355469 266.46875 81.480469 293.59375 C 108.628906 320.746094 146.128906 337.523438 187.550781 337.523438 C 228.972656 337.523438 266.46875 320.746094 293.59375 293.59375 C 320.746094 266.46875 337.523438 228.972656 337.523438 187.550781 C 337.523438 146.128906 320.746094 108.628906 293.59375 81.480469 Z M 293.59375 81.480469 " fill-opacity="1" fill-rule="nonzero"/></g><path fill="#272727" d="M 149.410156 171.65625 C 152.90625 181.789062 161.304688 193.523438 171.441406 203.660156 C 181.578125 213.796875 193.285156 222.195312 203.445312 225.691406 L 215.289062 213.820312 C 217.609375 211.527344 220.460938 210.0625 223.503906 209.449219 C 226.542969 208.886719 229.746094 209.179688 232.730469 210.460938 L 235.503906 211.582031 C 244.414062 215.316406 254.761719 219.53125 265.082031 223.742188 L 266.203125 224.195312 C 268.390625 225.105469 270.3125 226.410156 271.859375 228.089844 C 273.433594 229.769531 274.605469 231.769531 275.324219 234.039062 C 276.046875 236.277344 276.257812 238.597656 275.992188 240.867188 C 275.726562 243.132812 274.925781 245.320312 273.644531 247.347656 C 270.683594 252.066406 267.457031 256.121094 264.042969 259.535156 C 250.496094 273.113281 233.636719 277.40625 216.25 275.777344 C 199.339844 274.230469 181.976562 267.03125 166.695312 257.429688 C 156.503906 251.027344 147.25 243.535156 139.675781 235.984375 L 139.117188 235.425781 C 131.542969 227.851562 124.074219 218.597656 117.671875 208.40625 C 108.070312 193.125 100.871094 175.734375 99.296875 158.851562 C 97.695312 141.4375 101.988281 124.605469 115.566406 111.03125 C 119.003906 107.617188 123.058594 104.390625 127.753906 101.429688 C 129.753906 100.148438 131.96875 99.375 134.234375 99.082031 L 134.234375 99.109375 C 136.476562 98.816406 138.796875 99.027344 141.035156 99.777344 C 143.328125 100.496094 145.328125 101.667969 147.011719 103.214844 C 148.664062 104.761719 149.996094 106.683594 150.90625 108.898438 L 151.519531 110.445312 C 155.679688 120.632812 159.8125 130.820312 163.519531 139.570312 C 163.546875 139.621094 164.507812 142.050781 164.613281 142.34375 C 165.921875 145.355469 166.214844 148.558594 165.625 151.570312 C 165.039062 154.636719 163.574219 157.492188 161.253906 159.785156 Z M 164.960938 210.140625 C 152.957031 198.140625 143.117188 183.816406 139.808594 171.519531 L 139.117188 168.988281 L 154.773438 153.304688 C 155.785156 152.316406 156.425781 151.117188 156.664062 149.863281 C 156.90625 148.582031 156.773438 147.222656 156.210938 145.917969 L 155.089844 143.089844 C 150.636719 132.5 146.851562 123.191406 143.0625 113.882812 L 142.421875 112.3125 C 142.023438 111.378906 141.460938 110.550781 140.769531 109.910156 C 140.074219 109.269531 139.222656 108.765625 138.261719 108.445312 C 137.273438 108.148438 136.289062 108.042969 135.328125 108.148438 C 134.367188 108.308594 133.460938 108.628906 132.609375 109.164062 C 128.527344 111.722656 125.007812 114.523438 122.019531 117.511719 C 110.628906 128.925781 107.03125 143.195312 108.390625 158.027344 C 109.804688 173.363281 116.472656 189.363281 125.40625 203.527344 C 131.382812 213.074219 138.421875 221.769531 145.597656 228.945312 L 146.15625 229.503906 C 153.304688 236.679688 162.027344 243.695312 171.574219 249.695312 C 185.738281 258.601562 201.738281 265.269531 217.050781 266.710938 C 231.878906 268.070312 246.175781 264.46875 257.5625 253.054688 C 260.578125 250.066406 263.375 246.546875 265.9375 242.492188 C 266.46875 241.640625 266.789062 240.707031 266.925781 239.746094 C 267.058594 238.8125 266.949219 237.824219 266.628906 236.839844 C 266.3125 235.851562 265.832031 235 265.191406 234.304688 C 264.550781 233.613281 263.722656 233.050781 262.761719 232.679688 L 261.644531 232.226562 C 252.175781 228.359375 242.734375 224.515625 231.957031 219.984375 L 229.15625 218.863281 C 227.878906 218.328125 226.515625 218.195312 225.238281 218.4375 C 223.984375 218.675781 222.757812 219.316406 221.769531 220.304688 L 206.113281 235.984375 L 203.554688 235.292969 C 191.285156 231.984375 176.933594 222.117188 164.960938 210.140625 Z M 164.960938 210.140625 " fill-opacity="1" fill-rule="nonzero"/></svg>