<svg xmlns="http://www.w3.org/2000/svg" xmlns:xlink="http://www.w3.org/1999/xlink" width="500" zoomAndPan="magnify" viewBox="0 0 375 374.999991" height="500" preserveAspectRatio="xMidYMid meet" version="1.0"><defs><clipPath id="0257986392"><path d="M 28.402344 28.402344 L 346.402344 28.402344 L 346.402344 346.402344 L 28.402344 346.402344 Z M 28.402344 28.402344 " clip-rule="nonzero"/></clipPath></defs><g clip-path="url(#0257986392)"><path fill="#272727" d="M 187.46875 28.429688 C 231.402344 28.429688 271.175781 46.234375 299.96875 75.023438 C 328.765625 103.8125 346.570312 143.585938 346.570312 187.523438 C 346.570312 231.453125 328.765625 271.226562 299.96875 300.023438 C 271.175781 328.820312 231.40625 346.617188 187.472656 346.617188 C 143.539062 346.617188 103.765625 328.8125 74.972656 300.023438 C 46.175781 271.234375 28.378906 231.453125 28.378906 187.523438 C 28.378906 143.59375 46.183594 103.820312 74.972656 75.023438 C 103.761719 46.230469 143.539062 28.429688 187.46875 28.429688 Z M 293.71875 81.277344 C 266.527344 54.082031 228.96875 37.265625 187.46875 37.265625 C 145.980469 37.265625 108.414062 54.082031 81.222656 81.277344 C 54.03125 108.46875 37.214844 146.027344 37.214844 187.523438 C 37.214844 229.015625 54.03125 266.578125 81.222656 293.773438 C 108.414062 320.964844 145.972656 337.78125 187.46875 337.78125 C 228.960938 337.78125 266.527344 320.964844 293.71875 293.773438 C 320.910156 266.578125 337.726562 229.019531 337.726562 187.523438 C 337.726562 146.035156 320.910156 108.46875 293.71875 81.277344 Z M 293.71875 81.277344 " fill-opacity="1" fill-rule="nonzero"/></g><path fill="#272727" d="M 187.46875 88.089844 C 217.214844 88.089844 241.324219 109.738281 241.324219 136.449219 C 241.324219 156.082031 197.433594 247.574219 187.332031 271.539062 C 172.988281 237.519531 143.554688 180.03125 135.054688 147.550781 L 135.050781 147.539062 C 134.121094 143.976562 133.625 140.265625 133.625 136.449219 C 133.617188 109.738281 157.726562 88.089844 187.46875 88.089844 Z M 187.46875 110.773438 C 173.3125 110.773438 161.828125 122.253906 161.828125 136.414062 C 161.828125 150.574219 173.3125 162.054688 187.46875 162.054688 C 201.628906 162.054688 213.109375 150.574219 213.109375 136.414062 C 213.109375 122.253906 201.628906 110.773438 187.46875 110.773438 Z M 187.46875 110.773438 " fill-opacity="1" fill-rule="evenodd"/><path fill="#272727" d="M 227.535156 266.871094 C 227.535156 258.460938 217.101562 251.015625 201.664062 248.085938 C 197.929688 256.324219 194.113281 264.589844 190.597656 272.917969 L 187.324219 280.679688 L 184.050781 272.917969 L 173.554688 248.03125 C 157.964844 250.921875 147.40625 258.40625 147.40625 266.871094 C 147.40625 277.96875 165.34375 286.957031 187.46875 286.957031 C 209.597656 286.957031 227.535156 277.960938 227.535156 266.871094 Z M 227.535156 266.871094 " fill-opacity="1" fill-rule="evenodd"/></svg>