<svg xmlns="http://www.w3.org/2000/svg" xmlns:xlink="http://www.w3.org/1999/xlink" width="500" zoomAndPan="magnify" viewBox="0 0 375 374.999991" height="500" preserveAspectRatio="xMidYMid meet" version="1.0"><defs><clipPath id="c3a1a2cf36"><path d="M 28.402344 28.402344 L 346.402344 28.402344 L 346.402344 346.402344 L 28.402344 346.402344 Z M 28.402344 28.402344 " clip-rule="nonzero"/></clipPath></defs><path fill="#272727" d="M 252.234375 126.113281 L 225.160156 253.441406 C 223.820312 259.738281 216.3125 262.554688 211.085938 258.800781 L 146.617188 210.820312 L 217.789062 146.484375 C 217.789062 146.484375 222.613281 142.597656 221.273438 141.390625 C 219.796875 139.917969 214.570312 143.132812 211.757812 145.007812 C 209.074219 146.886719 124.636719 200.230469 124.636719 200.230469 L 82.015625 186.828125 C 77.191406 185.351562 77.191406 178.785156 84.160156 175.835938 L 241.511719 115.253906 C 248.210938 111.902344 253.707031 119.679688 252.234375 126.113281 Z M 252.234375 126.113281 " fill-opacity="1" fill-rule="nonzero"/><g clip-path="url(#c3a1a2cf36)"><path fill="#272727" d="M 187.496094 346.589844 C 99.839844 346.589844 28.402344 275.285156 28.402344 187.496094 C 28.402344 99.839844 99.839844 28.402344 187.496094 28.402344 C 275.285156 28.402344 346.589844 99.839844 346.589844 187.496094 C 346.589844 275.285156 275.285156 346.589844 187.496094 346.589844 Z M 187.496094 37.117188 C 104.53125 37.117188 37.117188 104.53125 37.117188 187.496094 C 37.117188 270.460938 104.53125 337.878906 187.496094 337.878906 C 270.460938 337.878906 337.878906 270.460938 337.878906 187.496094 C 337.878906 104.53125 270.460938 37.117188 187.496094 37.117188 Z M 187.496094 37.117188 " fill-opacity="1" fill-rule="nonzero"/></g></svg>